# xmcd
#
# Track frame offsets:
#	180
#	14376
#	26899
#	38765
#	52379
#	66610
#	77440
#	90170
#	102734
#	112230
#	124872
#	137109
#	150527
#	164364
#	178213
#	190191
#
# Disc length: 2700 seconds
#
# Revision: 0
# Processed by: cddbd v1.5.2PL0 Copyright (c) Steve Scherf et al.
# Submitted via: dBpowerAMP V4.0
#
DISCID=e50a8a10
DTITLE=Various Artist - Louisiana Boogie CD 2
DYEAR=1900
DGENRE=Country
TTITLE0=Jimmy Rodgers - Lullaby Yodel
TTITLE1=Kentucky Ramblers - Ginseng blues
TTITLE2=Shelley Lee Alley - Women women women
TTITLE3=Ernest Phipps - Shine on me
TTITLE4=Joe's Acadians - Ammend la nouville a mamere
TTITLE5=Radio Cowboys - Mississippi muddle
TTITLE6=Bill Mounce - I found a new baby
TTITLE7=Foy Willing - Texas blues
TTITLE8=Gene Autrey - Sioux City Sue
TTITLE9=Johnny Bond - Twilight on the trail
TTITLE10=Spade Cooley - Boggs boogie
TTITLE11=Jimmy Wyble - No more blues
TTITLE12=Hank Choates - Louisiana boogie
TTITLE13=Tommy Duncan - Gamblin' polkadot blues
TTITLE14=Molly O'Day - Poor Ellen Smith
TTITLE15=Pee Wee Hughes - Country boy blues
EXTD=
EXTT0=
EXTT1=
EXTT2=
EXTT3=
EXTT4=
EXTT5=
EXTT6=
EXTT7=
EXTT8=
EXTT9=
EXTT10=
EXTT11=
EXTT12=
EXTT13=
EXTT14=
EXTT15=
PLAYORDER=
